<mxfile host="Electron" agent="Mozilla/5.0 (Macintosh; Intel Mac OS X 10_15_7) AppleWebKit/537.36 (KHTML, like Gecko) draw.io/26.2.2 Chrome/134.0.6998.178 Electron/35.1.2 Safari/537.36" version="26.2.2">
  <diagram name="PÃ¡gina-1" id="ytkqiRXM0nRBt8I7_o1d">
    <mxGraphModel dx="2086" dy="663" grid="1" gridSize="10" guides="1" tooltips="1" connect="1" arrows="1" fold="1" page="1" pageScale="1" pageWidth="827" pageHeight="1169" math="0" shadow="0">
      <root>
        <mxCell id="0" />
        <mxCell id="1" parent="0" />
        <mxCell id="UdicWerXyJRW6_YrkzJ9-1" value="" style="rounded=1;whiteSpace=wrap;html=1;" vertex="1" parent="1">
          <mxGeometry x="-140" y="100" width="540" height="310" as="geometry" />
        </mxCell>
        <mxCell id="UdicWerXyJRW6_YrkzJ9-2" value="Tempo do intervalo" style="rounded=1;whiteSpace=wrap;html=1;" vertex="1" parent="1">
          <mxGeometry x="430" y="100" width="210" height="40" as="geometry" />
        </mxCell>
        <mxCell id="UdicWerXyJRW6_YrkzJ9-4" value="Intervalo no qual o tempo vai ser paticionado: TEXTBOX AQUI" style="rounded=1;whiteSpace=wrap;html=1;" vertex="1" parent="1">
          <mxGeometry x="430" y="250" width="210" height="40" as="geometry" />
        </mxCell>
        <mxCell id="UdicWerXyJRW6_YrkzJ9-5" value="Hora atual" style="rounded=1;whiteSpace=wrap;html=1;" vertex="1" parent="1">
          <mxGeometry x="-140" y="50" width="210" height="40" as="geometry" />
        </mxCell>
        <mxCell id="UdicWerXyJRW6_YrkzJ9-6" value="" style="ellipse;whiteSpace=wrap;html=1;aspect=fixed;" vertex="1" parent="1">
          <mxGeometry x="-100" y="130" width="30" height="30" as="geometry" />
        </mxCell>
        <mxCell id="UdicWerXyJRW6_YrkzJ9-7" value="" style="ellipse;whiteSpace=wrap;html=1;aspect=fixed;" vertex="1" parent="1">
          <mxGeometry x="-60" y="130" width="30" height="30" as="geometry" />
        </mxCell>
        <mxCell id="UdicWerXyJRW6_YrkzJ9-8" value="" style="ellipse;whiteSpace=wrap;html=1;aspect=fixed;" vertex="1" parent="1">
          <mxGeometry x="-20" y="130" width="30" height="30" as="geometry" />
        </mxCell>
        <mxCell id="UdicWerXyJRW6_YrkzJ9-9" value="" style="ellipse;whiteSpace=wrap;html=1;aspect=fixed;" vertex="1" parent="1">
          <mxGeometry x="20" y="130" width="30" height="30" as="geometry" />
        </mxCell>
        <mxCell id="UdicWerXyJRW6_YrkzJ9-10" value="" style="ellipse;whiteSpace=wrap;html=1;aspect=fixed;" vertex="1" parent="1">
          <mxGeometry x="60" y="130" width="30" height="30" as="geometry" />
        </mxCell>
        <mxCell id="UdicWerXyJRW6_YrkzJ9-11" value="" style="ellipse;whiteSpace=wrap;html=1;aspect=fixed;" vertex="1" parent="1">
          <mxGeometry x="100" y="130" width="30" height="30" as="geometry" />
        </mxCell>
        <mxCell id="UdicWerXyJRW6_YrkzJ9-12" value="" style="ellipse;whiteSpace=wrap;html=1;aspect=fixed;" vertex="1" parent="1">
          <mxGeometry x="140" y="130" width="30" height="30" as="geometry" />
        </mxCell>
        <mxCell id="UdicWerXyJRW6_YrkzJ9-13" value="" style="ellipse;whiteSpace=wrap;html=1;aspect=fixed;" vertex="1" parent="1">
          <mxGeometry x="180" y="130" width="30" height="30" as="geometry" />
        </mxCell>
        <mxCell id="UdicWerXyJRW6_YrkzJ9-23" value="" style="ellipse;whiteSpace=wrap;html=1;aspect=fixed;" vertex="1" parent="1">
          <mxGeometry x="220" y="130" width="30" height="30" as="geometry" />
        </mxCell>
        <mxCell id="UdicWerXyJRW6_YrkzJ9-24" value="" style="ellipse;whiteSpace=wrap;html=1;aspect=fixed;" vertex="1" parent="1">
          <mxGeometry x="300" y="130" width="30" height="30" as="geometry" />
        </mxCell>
        <mxCell id="UdicWerXyJRW6_YrkzJ9-25" value="" style="ellipse;whiteSpace=wrap;html=1;aspect=fixed;" vertex="1" parent="1">
          <mxGeometry x="340" y="130" width="30" height="30" as="geometry" />
        </mxCell>
        <mxCell id="UdicWerXyJRW6_YrkzJ9-26" value="" style="ellipse;whiteSpace=wrap;html=1;aspect=fixed;" vertex="1" parent="1">
          <mxGeometry x="260" y="130" width="30" height="30" as="geometry" />
        </mxCell>
        <mxCell id="UdicWerXyJRW6_YrkzJ9-27" value="" style="ellipse;whiteSpace=wrap;html=1;aspect=fixed;" vertex="1" parent="1">
          <mxGeometry x="-100" y="170" width="30" height="30" as="geometry" />
        </mxCell>
        <mxCell id="UdicWerXyJRW6_YrkzJ9-28" value="" style="ellipse;whiteSpace=wrap;html=1;aspect=fixed;" vertex="1" parent="1">
          <mxGeometry x="-60" y="170" width="30" height="30" as="geometry" />
        </mxCell>
        <mxCell id="UdicWerXyJRW6_YrkzJ9-29" value="" style="ellipse;whiteSpace=wrap;html=1;aspect=fixed;" vertex="1" parent="1">
          <mxGeometry x="-20" y="170" width="30" height="30" as="geometry" />
        </mxCell>
        <mxCell id="UdicWerXyJRW6_YrkzJ9-30" value="" style="ellipse;whiteSpace=wrap;html=1;aspect=fixed;" vertex="1" parent="1">
          <mxGeometry x="20" y="170" width="30" height="30" as="geometry" />
        </mxCell>
        <mxCell id="UdicWerXyJRW6_YrkzJ9-31" value="" style="ellipse;whiteSpace=wrap;html=1;aspect=fixed;" vertex="1" parent="1">
          <mxGeometry x="60" y="170" width="30" height="30" as="geometry" />
        </mxCell>
        <mxCell id="UdicWerXyJRW6_YrkzJ9-32" value="" style="ellipse;whiteSpace=wrap;html=1;aspect=fixed;" vertex="1" parent="1">
          <mxGeometry x="100" y="170" width="30" height="30" as="geometry" />
        </mxCell>
        <mxCell id="UdicWerXyJRW6_YrkzJ9-33" value="" style="ellipse;whiteSpace=wrap;html=1;aspect=fixed;" vertex="1" parent="1">
          <mxGeometry x="140" y="170" width="30" height="30" as="geometry" />
        </mxCell>
        <mxCell id="UdicWerXyJRW6_YrkzJ9-34" value="" style="ellipse;whiteSpace=wrap;html=1;aspect=fixed;" vertex="1" parent="1">
          <mxGeometry x="180" y="170" width="30" height="30" as="geometry" />
        </mxCell>
        <mxCell id="UdicWerXyJRW6_YrkzJ9-35" value="" style="ellipse;whiteSpace=wrap;html=1;aspect=fixed;" vertex="1" parent="1">
          <mxGeometry x="220" y="170" width="30" height="30" as="geometry" />
        </mxCell>
        <mxCell id="UdicWerXyJRW6_YrkzJ9-36" value="" style="ellipse;whiteSpace=wrap;html=1;aspect=fixed;" vertex="1" parent="1">
          <mxGeometry x="300" y="170" width="30" height="30" as="geometry" />
        </mxCell>
        <mxCell id="UdicWerXyJRW6_YrkzJ9-37" value="" style="ellipse;whiteSpace=wrap;html=1;aspect=fixed;" vertex="1" parent="1">
          <mxGeometry x="340" y="170" width="30" height="30" as="geometry" />
        </mxCell>
        <mxCell id="UdicWerXyJRW6_YrkzJ9-38" value="" style="ellipse;whiteSpace=wrap;html=1;aspect=fixed;" vertex="1" parent="1">
          <mxGeometry x="260" y="170" width="30" height="30" as="geometry" />
        </mxCell>
        <mxCell id="UdicWerXyJRW6_YrkzJ9-39" value="" style="ellipse;whiteSpace=wrap;html=1;aspect=fixed;" vertex="1" parent="1">
          <mxGeometry x="-100" y="210" width="30" height="30" as="geometry" />
        </mxCell>
        <mxCell id="UdicWerXyJRW6_YrkzJ9-40" value="" style="ellipse;whiteSpace=wrap;html=1;aspect=fixed;" vertex="1" parent="1">
          <mxGeometry x="-60" y="210" width="30" height="30" as="geometry" />
        </mxCell>
        <mxCell id="UdicWerXyJRW6_YrkzJ9-41" value="" style="ellipse;whiteSpace=wrap;html=1;aspect=fixed;" vertex="1" parent="1">
          <mxGeometry x="-20" y="210" width="30" height="30" as="geometry" />
        </mxCell>
        <mxCell id="UdicWerXyJRW6_YrkzJ9-42" value="" style="ellipse;whiteSpace=wrap;html=1;aspect=fixed;" vertex="1" parent="1">
          <mxGeometry x="20" y="210" width="30" height="30" as="geometry" />
        </mxCell>
        <mxCell id="UdicWerXyJRW6_YrkzJ9-43" value="" style="ellipse;whiteSpace=wrap;html=1;aspect=fixed;" vertex="1" parent="1">
          <mxGeometry x="60" y="210" width="30" height="30" as="geometry" />
        </mxCell>
        <mxCell id="UdicWerXyJRW6_YrkzJ9-44" value="" style="ellipse;whiteSpace=wrap;html=1;aspect=fixed;" vertex="1" parent="1">
          <mxGeometry x="100" y="210" width="30" height="30" as="geometry" />
        </mxCell>
        <mxCell id="UdicWerXyJRW6_YrkzJ9-45" value="" style="ellipse;whiteSpace=wrap;html=1;aspect=fixed;" vertex="1" parent="1">
          <mxGeometry x="140" y="210" width="30" height="30" as="geometry" />
        </mxCell>
        <mxCell id="UdicWerXyJRW6_YrkzJ9-46" value="" style="ellipse;whiteSpace=wrap;html=1;aspect=fixed;" vertex="1" parent="1">
          <mxGeometry x="180" y="210" width="30" height="30" as="geometry" />
        </mxCell>
        <mxCell id="UdicWerXyJRW6_YrkzJ9-47" value="" style="ellipse;whiteSpace=wrap;html=1;aspect=fixed;" vertex="1" parent="1">
          <mxGeometry x="220" y="210" width="30" height="30" as="geometry" />
        </mxCell>
        <mxCell id="UdicWerXyJRW6_YrkzJ9-48" value="" style="ellipse;whiteSpace=wrap;html=1;aspect=fixed;" vertex="1" parent="1">
          <mxGeometry x="300" y="210" width="30" height="30" as="geometry" />
        </mxCell>
        <mxCell id="UdicWerXyJRW6_YrkzJ9-49" value="" style="ellipse;whiteSpace=wrap;html=1;aspect=fixed;" vertex="1" parent="1">
          <mxGeometry x="340" y="210" width="30" height="30" as="geometry" />
        </mxCell>
        <mxCell id="UdicWerXyJRW6_YrkzJ9-50" value="" style="ellipse;whiteSpace=wrap;html=1;aspect=fixed;" vertex="1" parent="1">
          <mxGeometry x="260" y="210" width="30" height="30" as="geometry" />
        </mxCell>
        <mxCell id="UdicWerXyJRW6_YrkzJ9-51" value="" style="ellipse;whiteSpace=wrap;html=1;aspect=fixed;" vertex="1" parent="1">
          <mxGeometry x="-100" y="250" width="30" height="30" as="geometry" />
        </mxCell>
        <mxCell id="UdicWerXyJRW6_YrkzJ9-52" value="" style="ellipse;whiteSpace=wrap;html=1;aspect=fixed;" vertex="1" parent="1">
          <mxGeometry x="-60" y="250" width="30" height="30" as="geometry" />
        </mxCell>
        <mxCell id="UdicWerXyJRW6_YrkzJ9-53" value="" style="ellipse;whiteSpace=wrap;html=1;aspect=fixed;" vertex="1" parent="1">
          <mxGeometry x="-20" y="250" width="30" height="30" as="geometry" />
        </mxCell>
        <mxCell id="UdicWerXyJRW6_YrkzJ9-54" value="" style="ellipse;whiteSpace=wrap;html=1;aspect=fixed;" vertex="1" parent="1">
          <mxGeometry x="20" y="250" width="30" height="30" as="geometry" />
        </mxCell>
        <mxCell id="UdicWerXyJRW6_YrkzJ9-55" value="" style="ellipse;whiteSpace=wrap;html=1;aspect=fixed;" vertex="1" parent="1">
          <mxGeometry x="60" y="250" width="30" height="30" as="geometry" />
        </mxCell>
        <mxCell id="UdicWerXyJRW6_YrkzJ9-56" value="" style="ellipse;whiteSpace=wrap;html=1;aspect=fixed;" vertex="1" parent="1">
          <mxGeometry x="100" y="250" width="30" height="30" as="geometry" />
        </mxCell>
        <mxCell id="UdicWerXyJRW6_YrkzJ9-57" value="" style="ellipse;whiteSpace=wrap;html=1;aspect=fixed;" vertex="1" parent="1">
          <mxGeometry x="140" y="250" width="30" height="30" as="geometry" />
        </mxCell>
        <mxCell id="UdicWerXyJRW6_YrkzJ9-58" value="" style="ellipse;whiteSpace=wrap;html=1;aspect=fixed;" vertex="1" parent="1">
          <mxGeometry x="180" y="250" width="30" height="30" as="geometry" />
        </mxCell>
        <mxCell id="UdicWerXyJRW6_YrkzJ9-59" value="" style="ellipse;whiteSpace=wrap;html=1;aspect=fixed;" vertex="1" parent="1">
          <mxGeometry x="220" y="250" width="30" height="30" as="geometry" />
        </mxCell>
        <mxCell id="UdicWerXyJRW6_YrkzJ9-60" value="" style="ellipse;whiteSpace=wrap;html=1;aspect=fixed;" vertex="1" parent="1">
          <mxGeometry x="300" y="250" width="30" height="30" as="geometry" />
        </mxCell>
        <mxCell id="UdicWerXyJRW6_YrkzJ9-61" value="" style="ellipse;whiteSpace=wrap;html=1;aspect=fixed;" vertex="1" parent="1">
          <mxGeometry x="340" y="250" width="30" height="30" as="geometry" />
        </mxCell>
        <mxCell id="UdicWerXyJRW6_YrkzJ9-62" value="" style="ellipse;whiteSpace=wrap;html=1;aspect=fixed;" vertex="1" parent="1">
          <mxGeometry x="260" y="250" width="30" height="30" as="geometry" />
        </mxCell>
        <mxCell id="UdicWerXyJRW6_YrkzJ9-63" value="caixa de selecao de tempo" style="rounded=0;whiteSpace=wrap;html=1;" vertex="1" parent="1">
          <mxGeometry x="430" y="150" width="210" height="40" as="geometry" />
        </mxCell>
        <mxCell id="UdicWerXyJRW6_YrkzJ9-78" value="Tempo restante" style="rounded=1;whiteSpace=wrap;html=1;" vertex="1" parent="1">
          <mxGeometry x="190" y="50" width="210" height="40" as="geometry" />
        </mxCell>
        <mxCell id="UdicWerXyJRW6_YrkzJ9-79" value="BO&lt;span style=&quot;background-color: transparent; color: light-dark(rgb(0, 0, 0), rgb(255, 255, 255));&quot;&gt;TAO START&lt;/span&gt;" style="rounded=1;whiteSpace=wrap;html=1;" vertex="1" parent="1">
          <mxGeometry x="430" y="360" width="210" height="40" as="geometry" />
        </mxCell>
      </root>
    </mxGraphModel>
  </diagram>
</mxfile>
